<?xml version="1.0" encoding="UTF-8" standalone="no"?>
<!-- Created with Inkscape (http://www.inkscape.org/) -->

<svg
   xmlns:dc="http://purl.org/dc/elements/1.1/"
   xmlns:cc="http://creativecommons.org/ns#"
   xmlns:rdf="http://www.w3.org/1999/02/22-rdf-syntax-ns#"
   xmlns:svg="http://www.w3.org/2000/svg"
   xmlns="http://www.w3.org/2000/svg"
   xmlns:sodipodi="http://sodipodi.sourceforge.net/DTD/sodipodi-0.dtd"
   xmlns:inkscape="http://www.inkscape.org/namespaces/inkscape"
   width="1080"
   height="1080"
   viewBox="0 0 285.7464 285.7464"
   version="1.1"
   id="svg8"
   inkscape:version="0.92.3 (2405546, 2018-03-11)"
   sodipodi:docname="canvas2.svg"
   inkscape:export-filename="/home/corey/kivy_env/choubenkyo/app/draw_screen/canvas.png"
   inkscape:export-xdpi="96"
   inkscape:export-ydpi="96">
  <defs
     id="defs2" />
  <sodipodi:namedview
     id="base"
     pagecolor="#ffffff"
     bordercolor="#666666"
     borderopacity="1.0"
     inkscape:pageopacity="0.0"
     inkscape:pageshadow="2"
     inkscape:zoom="0.35"
     inkscape:cx="295.71429"
     inkscape:cy="620"
     inkscape:document-units="px"
     inkscape:current-layer="layer1"
     showgrid="false"
     units="px"
     inkscape:window-width="1920"
     inkscape:window-height="983"
     inkscape:window-x="0"
     inkscape:window-y="27"
     inkscape:window-maximized="1" />
  <metadata
     id="metadata5">
    <rdf:RDF>
      <cc:Work
         rdf:about="">
        <dc:format>image/svg+xml</dc:format>
        <dc:type
           rdf:resource="http://purl.org/dc/dcmitype/StillImage" />
        <dc:title></dc:title>
      </cc:Work>
    </rdf:RDF>
  </metadata>
  <g
     inkscape:label="Layer 1"
     inkscape:groupmode="layer"
     id="layer1">
    <rect
       id="rect29"
       width="284.69199"
       height="284.69199"
       x="0.89999998"
       y="0.89999998"
       style="opacity:1;vector-effect:none;fill:#0f0f0f;fill-opacity:1;stroke:#ffffff;stroke-width:1.05441475;stroke-linecap:butt;stroke-linejoin:miter;stroke-miterlimit:4;stroke-dasharray:none;stroke-dashoffset:0;stroke-opacity:1" />
    <path
       d="M 0,0 V 285.7464 M 9.52488,0 V 285.7464 M 19.04976,0 V 285.7464 M 28.57464,0 V 285.7464 M 38.09952,0 V 285.7464 M 47.6244,0 V 285.7464 M 57.14928,0 V 285.7464 M 66.67416,0 V 285.7464 M 76.19904,0 V 285.7464 M 85.72392,0 V 285.7464 M 95.2488,0 V 285.7464 M 104.77368,0 V 285.7464 M 114.29856,0 V 285.7464 M 123.82344,0 V 285.7464 M 133.34832,0 V 285.7464 M 142.8732,0 V 285.7464 M 152.39808,0 V 285.7464 M 161.92296,0 V 285.7464 M 171.44784,0 V 285.7464 M 180.97272,0 V 285.7464 M 190.4976,0 V 285.7464 M 200.02248,0 V 285.7464 M 209.54736,0 V 285.7464 M 219.07224,0 V 285.7464 M 228.59712,0 V 285.7464 M 238.122,0 V 285.7464 M 247.64688,0 V 285.7464 M 257.17176,0 V 285.7464 M 266.69664,0 V 285.7464 M 276.22152,0 V 285.7464 M 0,0 H 285.7464 M 0,9.52488 H 285.7464 M 0,19.04976 H 285.7464 M 0,28.57464 H 285.7464 M 0,38.09952 H 285.7464 M 0,47.6244 H 285.7464 M 0,57.14928 H 285.7464 M 0,66.67416 H 285.7464 M 0,76.19904 H 285.7464 M 0,85.72392 H 285.7464 M 0,95.2488 H 285.7464 M 0,104.77368 H 285.7464 M 0,114.29856 H 285.7464 M 0,123.82344 H 285.7464 M 0,133.34832 H 285.7464 M 0,142.8732 H 285.7464 M 0,152.39808 H 285.7464 M 0,161.92296 H 285.7464 M 0,171.44784 H 285.7464 M 0,180.97272 H 285.7464 M 0,190.4976 H 285.7464 M 0,200.02248 H 285.7464 M 0,209.54736 H 285.7464 M 0,219.07224 H 285.7464 M 0,228.59712 H 285.7464 M 0,238.122 H 285.7464 M 0,247.64688 H 285.7464 M 0,257.17176 H 285.7464 M 0,266.69664 H 285.7464 M 0,276.22152 h 285.7464"
       style="fill:none;stroke:#222222;stroke-width:0.52916002px"
       id="path965"
       inkscape:connector-curvature="0" />
    <path
       d="M 0,0 V 285.7464 M 95.2488,0 V 285.7464 M 190.4976,0 V 285.7464 M 0,0 H 285.7464 M 0,95.2488 H 285.7464 M 0,190.4976 h 285.7464"
       style="fill:none;stroke:#333333;stroke-width:1.05832005px"
       id="path983"
       inkscape:connector-curvature="0" />
    <rect
       id="rect29-6"
       width="284.69199"
       height="284.69199"
       x="0.89999998"
       y="0.89999998"
       style="fill:none;fill-opacity:1;stroke:#ffffff;stroke-width:1.32290006;stroke-miterlimit:4;stroke-dasharray:none;stroke-opacity:1" />
  </g>
</svg>
